<svg xmlns="http://www.w3.org/2000/svg" viewBox="0 0 606.54 825.95"><defs><style>.\34 8c3e8a9-2106-4655-a235-ab6270eb82fe{fill:#6dcff6;}</style></defs><title>puzzle-piece</title><g id="35bdc302-7a5d-4397-921f-96e35df3ae93" data-name="Layer 2"><g id="c8471de2-69a4-41f4-9faf-cadcf3f10f93" data-name="Layer 1"><path class="48c3e8a9-2106-4655-a235-ab6270eb82fe" d="M0,604.46V826H606V598.13h0c-22.89,22.6-70.34,36.56-105,36.56C431,634.69,382.22,593,382.22,523S431,411.25,500.94,411.25c35,0,82.67,14.18,105.6,37.11l-.57-.53V220H396c11.85-19.28,23.69-69,23.69-93.27C419.71,56.73,373,0,303,0S186.27,56.73,186.27,126.72c0,24.29,11.83,74,23.68,93.27H0v221.5H0C22.27,422,70.41,410.25,102.3,410.25,172.29,410.25,220,453,220,523S172.29,635.69,102.3,635.69c-31.89,0-80-11.78-102.3-31.23Z"/></g></g></svg>